{
.appVersion = "1357";
copyright = "Copyright 2022 Google Inc. All Rights Reserved.";
customParameters = (
{
name = "Has WWS Names";
value = 1;
},
{
name = fsType;
value = (
);
},
{
name = license;
value = "This Font Software is licensed under the SIL Open Font License, Version 1.1. This license is available with a FAQ at: http://scripts.sil.org/OFL";
},
{
name = licenseURL;
value = "http://scripts.sil.org/OFL";
},
{
name = vendorID;
value = GOOG;
},
{
name = trademark;
value = "Noto is a trademark of Google Inc.";
},
{
name = versionString;
value = "Version 1.502";
},
{
name = "Use Typo Metrics";
value = 1;
}
);
date = "2022-01-11 19:16:11 +0000";
designer = "David Williams";
disablesAutomaticAlignment = 1;
disablesNiceNames = 1;
familyName = "Noto Sans Cypro Minoan";
featurePrefixes = (
{
code = "languagesystem DFLT dflt;\012languagesystem cpmn dflt;\012";
name = Languagesystems;
}
);
fontMaster = (
{
alignmentZones = (
"{1069, 15}",
"{800, 15}",
"{536, 15}",
"{0, -15}",
"{-293, -15}"
);
ascender = 1069;
capHeight = 800;
customParameters = (
{
name = typoAscender;
value = 1069;
},
{
name = typoDescender;
value = -293;
},
{
name = typoLineGap;
value = 0;
},
{
name = winAscent;
value = 1069;
},
{
name = winDescent;
value = 30;
},
{
name = hheaAscender;
value = 1069;
},
{
name = hheaDescender;
value = -293;
},
{
name = hheaLineGap;
value = 0;
},
{
name = underlinePosition;
value = -100;
},
{
name = underlineThickness;
value = 50;
},
{
name = panose;
value = (
2,
11,
5,
2,
4,
5,
4,
2,
2,
4
);
},
{
name = "Use Typo Metrics";
value = 1;
}
);
descender = -293;
horizontalStems = (
63
);
id = UUID0;
verticalStems = (
70
);
weightValue = 70;
xHeight = 536;
}
);
glyphs = (
{
glyphname = .notdef;
lastChange = "2017-01-12 21:37:47 +0000";
layers = (
{
layerId = UUID0;
paths = (
{
closed = 1;
nodes = (
"94 0 LINE",
"505 0 LINE",
"505 714 LINE",
"94 714 LINE"
);
},
{
closed = 1;
nodes = (
"145 663 LINE",
"454 663 LINE",
"454 51 LINE",
"145 51 LINE"
);
}
);
width = 600;
}
);
},
{
glyphname = u12F90;
lastChange = "2022-01-11 19:01:50 +0000";
layers = (
{
layerId = UUID0;
paths = (
{
closed = 1;
nodes = (
"441 63 LINE",
"288 63 LINE",
"288 737 LINE",
"441 737 LINE",
"441 800 LINE",
"66 800 LINE",
"66 737 LINE",
"218 737 LINE",
"218 63 LINE",
"66 63 LINE",
"66 0 LINE",
"441 0 LINE"
);
}
);
width = 507;
}
);
unicode = 12F90;
},
{
glyphname = u12F91;
lastChange = "2022-01-11 19:03:34 +0000";
layers = (
{
components = (
{
name = u12F90;
transform = "{1, 0, 0, 1, 41, 0}";
}
);
layerId = UUID0;
paths = (
{
closed = 1;
nodes = (
"170 550 LINE",
"100 550 LINE",
"100 280 LINE",
"170 280 LINE"
);
},
{
closed = 1;
nodes = (
"418 550 LINE",
"418 280 LINE",
"488 280 LINE",
"488 550 LINE"
);
}
);
width = 588;
},
{
associatedMasterId = UUID0;
layerId = "A31ECFBB-6CA5-41E6-96D9-8EF084DEB39E";
name = "Dec 13 21, 15:48";
width = 600;
}
);
unicode = 12F91;
},
{
glyphname = u12F92;
lastChange = "2022-01-11 19:03:41 +0000";
layers = (
{
layerId = UUID0;
paths = (
{
closed = 1;
nodes = (
"434 468 LINE",
"181 468 LINE",
"181 800 LINE",
"111 800 LINE",
"111 0 LINE",
"181 0 LINE",
"181 405 LINE",
"434 405 LINE"
);
}
);
width = 500;
}
);
unicode = 12F92;
},
{
glyphname = u12F93;
lastChange = "2022-01-11 19:04:00 +0000";
layers = (
{
layerId = UUID0;
paths = (
{
closed = 1;
nodes = (
"441 468 LINE",
"288 468 LINE",
"288 800 LINE",
"218 800 LINE",
"218 468 LINE",
"66 468 LINE",
"66 405 LINE",
"218 405 LINE",
"218 0 LINE",
"288 0 LINE",
"288 405 LINE",
"441 405 LINE"
);
}
);
width = 507;
}
);
unicode = 12F93;
},
{
glyphname = u12F94;
lastChange = "2022-01-11 19:04:05 +0000";
layers = (
{
layerId = UUID0;
paths = (
{
closed = 1;
nodes = (
"441 358 LINE",
"288 358 LINE",
"288 515 LINE",
"441 515 LINE",
"441 578 LINE",
"288 578 LINE",
"288 800 LINE",
"218 800 LINE",
"218 578 LINE",
"66 578 LINE",
"66 515 LINE",
"218 515 LINE",
"218 358 LINE",
"66 358 LINE",
"66 295 LINE",
"218 295 LINE",
"218 0 LINE",
"288 0 LINE",
"288 295 LINE",
"441 295 LINE"
);
}
);
width = 507;
}
);
unicode = 12F94;
},
{
glyphname = u12F95;
lastChange = "2022-01-11 19:04:11 +0000";
layers = (
{
layerId = UUID0;
paths = (
{
closed = 1;
nodes = (
"465 451 LINE",
"312 451 LINE",
"312 588 LINE",
"465 588 LINE",
"465 651 LINE",
"312 651 LINE",
"312 800 LINE",
"242 800 LINE",
"242 651 LINE",
"90 651 LINE",
"90 588 LINE",
"242 588 LINE",
"242 451 LINE",
"90 451 LINE",
"90 388 LINE",
"242 388 LINE",
"242 251 LINE",
"90 251 LINE",
"90 187 LINE",
"242 187 LINE",
"242 0 LINE",
"312 0 LINE",
"312 187 LINE",
"465 187 LINE",
"465 251 LINE",
"312 251 LINE",
"312 388 LINE",
"465 388 LINE"
);
}
);
width = 555;
}
);
unicode = 12F95;
},
{
glyphname = u12F96;
lastChange = "2022-01-11 19:04:16 +0000";
layers = (
{
layerId = UUID0;
paths = (
{
closed = 1;
nodes = (
"431 580 LINE",
"288 580 LINE",
"288 737 LINE",
"441 737 LINE",
"441 800 LINE",
"66 800 LINE",
"66 737 LINE",
"218 737 LINE",
"218 580 LINE",
"76 580 LINE",
"76 517 LINE",
"218 517 LINE",
"218 0 LINE",
"288 0 LINE",
"288 517 LINE",
"431 517 LINE"
);
}
);
width = 507;
}
);
unicode = 12F96;
},
{
glyphname = u12F97;
lastChange = "2022-01-11 19:04:20 +0000";
layers = (
{
layerId = UUID0;
paths = (
{
closed = 1;
nodes = (
"463 356 OFFCURVE",
"377 424 OFFCURVE",
"377 510 CURVE SMOOTH",
"377 579 OFFCURVE",
"410 702 OFFCURVE",
"470 800 CURVE",
"388 800 LINE",
"337 703 OFFCURVE",
"307 596 OFFCURVE",
"307 518 CURVE SMOOTH",
"307 398 OFFCURVE",
"392 349 OFFCURVE",
"410 270 CURVE",
"47 270 LINE",
"47 200 LINE",
"481 200 LINE",
"481 270 LINE"
);
},
{
closed = 1;
nodes = (
"471 0 LINE",
"471 70 LINE",
"45 70 LINE",
"45 0 LINE"
);
}
);
width = 547;
}
);
unicode = 12F97;
},
{
glyphname = u12F98;
lastChange = "2022-01-11 19:04:25 +0000";
layers = (
{
layerId = UUID0;
paths = (
{
closed = 1;
nodes = (
"292 283 LINE",
"292 500 LINE SMOOTH",
"292 608 OFFCURVE",
"285 697 OFFCURVE",
"281 725 CURVE",
"285 725 LINE",
"293 696 OFFCURVE",
"310 655 OFFCURVE",
"342 607 CURVE SMOOTH",
"397 524 LINE",
"451 562 LINE",
"282 814 LINE",
"222 814 LINE",
"222 283 LINE",
"80 283 LINE",
"80 220 LINE",
"222 220 LINE",
"222 63 LINE",
"70 63 LINE",
"70 0 LINE",
"445 0 LINE",
"445 63 LINE",
"292 63 LINE",
"292 220 LINE",
"435 220 LINE",
"435 283 LINE"
);
}
);
width = 521;
},
{
associatedMasterId = UUID0;
components = (
{
name = u12F96;
transform = "{1, 0, 0, -1, 0, 800}";
}
);
layerId = "4F3DC35B-BEFD-44D8-BCA8-74EB51678F79";
name = "Dec 13 21, 16:01";
paths = (
{
closed = 1;
nodes = (
"288 800 LINE",
"391 671 LINE",
"332 633 LINE",
"219 800 LINE"
);
}
);
width = 507;
}
);
unicode = 12F98;
},
{
glyphname = u12F99;
lastChange = "2022-01-11 19:04:29 +0000";
layers = (
{
layerId = UUID0;
paths = (
{
closed = 1;
nodes = (
"66 502 LINE",
"292 264 LINE",
"306 321 LINE",
"119 26 LINE",
"173 -15 LINE",
"338 244 LINE",
"338 313 LINE",
"104 559 LINE",
"104 502 LINE",
"278 774 LINE",
"227 815 LINE",
"66 569 LINE"
);
}
);
width = 404;
}
);
unicode = 12F99;
},
{
glyphname = u12F9A;
lastChange = "2022-01-11 19:04:36 +0000";
layers = (
{
layerId = UUID0;
paths = (
{
closed = 1;
nodes = (
"327 814 LINE",
"267 814 LINE",
"44 484 LINE",
"98 446 LINE",
"207 607 LINE SMOOTH",
"240 655 OFFCURVE",
"256 696 OFFCURVE",
"264 725 CURVE",
"268 725 LINE",
"264 697 OFFCURVE",
"257 608 OFFCURVE",
"257 500 CURVE SMOOTH",
"257 0 LINE",
"327 0 LINE"
);
}
);
width = 438;
}
);
unicode = 12F9A;
},
{
glyphname = u12F9B;
lastChange = "2022-01-11 19:04:40 +0000";
layers = (
{
layerId = UUID0;
paths = (
{
closed = 1;
nodes = (
"44 7 LINE",
"106 -18 LINE",
"279 391 LINE SMOOTH",
"312 469 OFFCURVE",
"317 485 OFFCURVE",
"321 497 CURVE",
"328 485 OFFCURVE",
"343 463 OFFCURVE",
"375 415 CURVE SMOOTH",
"539 170 LINE",
"593 209 LINE",
"352 566 LINE",
"448 794 LINE",
"387 818 LINE"
);
}
);
width = 648;
}
);
unicode = 12F9B;
},
{
glyphname = u12F9C;
lastChange = "2022-01-11 19:04:46 +0000";
layers = (
{
layerId = UUID0;
paths = (
{
closed = 1;
nodes = (
"170 800 LINE",
"170 737 LINE",
"353 737 LINE",
"44 7 LINE",
"106 -18 LINE",
"279 391 LINE SMOOTH",
"312 469 OFFCURVE",
"317 485 OFFCURVE",
"321 497 CURVE",
"328 485 OFFCURVE",
"343 463 OFFCURVE",
"375 415 CURVE SMOOTH",
"539 170 LINE",
"593 209 LINE",
"352 566 LINE",
"424 737 LINE",
"570 737 LINE",
"570 800 LINE"
);
}
);
width = 648;
}
);
unicode = 12F9C;
},
{
glyphname = u12F9D;
lastChange = "2022-01-11 19:04:51 +0000";
layers = (
{
layerId = UUID0;
paths = (
{
closed = 1;
nodes = (
"252 -10 LINE",
"308 -10 LINE",
"505 395 LINE",
"308 800 LINE",
"252 800 LINE",
"55 395 LINE"
);
},
{
closed = 1;
nodes = (
"280 706 LINE",
"430 395 LINE",
"280 84 LINE",
"130 395 LINE"
);
}
);
width = 560;
}
);
unicode = 12F9D;
},
{
glyphname = u12F9E;
lastChange = "2022-01-11 19:04:57 +0000";
layers = (
{
layerId = UUID0;
paths = (
{
closed = 1;
nodes = (
"468 229 LINE",
"535 474 LINE",
"475 492 LINE",
"407 246 LINE"
);
},
{
closed = 1;
nodes = (
"125 819 LINE",
"66 783 LINE",
"246 505 LINE SMOOTH",
"282 450 OFFCURVE",
"294 435 OFFCURVE",
"316 404 CURVE",
"297 379 OFFCURVE",
"279 354 OFFCURVE",
"239 293 CURVE SMOOTH",
"66 26 LINE",
"125 -10 LINE",
"394 404 LINE"
);
},
{
closed = 1;
nodes = (
"624 492 LINE",
"564 474 LINE",
"631 229 LINE",
"692 246 LINE"
);
}
);
width = 747;
}
);
unicode = 12F9E;
},
{
glyphname = u12F9F;
lastChange = "2022-01-11 19:05:02 +0000";
layers = (
{
layerId = UUID0;
paths = (
{
closed = 1;
nodes = (
"350 516 LINE",
"323 511 LINE",
"493 283 LINE",
"547 283 LINE",
"695 737 LINE",
"780 737 LINE",
"780 800 LINE",
"518 800 LINE",
"518 737 LINE",
"623 737 LINE",
"497 345 LINE",
"524 350 LINE",
"356 575 LINE",
"300 575 LINE",
"131 63 LINE",
"20 63 LINE",
"20 0 LINE",
"182 0 LINE",
"183 0 LINE"
);
}
);
width = 813;
},
{
associatedMasterId = UUID0;
layerId = "7D4F16C9-6317-4660-9520-12602A6B4831";
name = "Dec 13 21, 16:43";
paths = (
{
closed = 1;
nodes = (
"262 523 LINE",
"238 504 LINE",
"402 283 LINE",
"456 283 LINE",
"624 800 LINE",
"552 800 LINE",
"407 350 LINE",
"435 346 LINE",
"265 575 LINE",
"209 575 LINE",
"26 19 LINE",
"92 0 LINE"
);
},
{
closed = 1;
nodes = (
"427 737 LINE",
"689 737 LINE",
"689 800 LINE",
"427 800 LINE"
);
},
{
closed = 1;
nodes = (
"-71 0 LINE",
"91 0 LINE",
"91 63 LINE",
"-71 63 LINE"
);
}
);
width = 600;
}
);
unicode = 12F9F;
},
{
glyphname = u12FA0;
lastChange = "2022-01-11 19:05:08 +0000";
layers = (
{
layerId = UUID0;
paths = (
{
closed = 1;
nodes = (
"136 0 LINE",
"152 300 OFFCURVE",
"254 740 OFFCURVE",
"354 740 CURVE SMOOTH",
"456 740 OFFCURVE",
"556 295 OFFCURVE",
"573 0 CURVE",
"644 0 LINE",
"628 307 OFFCURVE",
"523 810 OFFCURVE",
"354 810 CURVE SMOOTH",
"199 810 OFFCURVE",
"84 326 OFFCURVE",
"66 0 CURVE"
);
}
);
width = 710;
}
);
unicode = 12FA0;
},
{
glyphname = u12FA1;
lastChange = "2022-01-11 19:05:12 +0000";
layers = (
{
components = (
{
name = u12FA0;
}
);
layerId = UUID0;
paths = (
{
closed = 1;
nodes = (
"386 544 LINE",
"316 544 LINE",
"316 50 LINE",
"386 50 LINE"
);
}
);
width = 710;
}
);
unicode = 12FA1;
},
{
glyphname = u12FA2;
lastChange = "2022-01-11 19:05:17 +0000";
layers = (
{
components = (
{
name = u12FA0;
}
);
layerId = UUID0;
paths = (
{
closed = 1;
nodes = (
"385 353 LINE",
"386 544 LINE",
"316 544 LINE",
"315 353 LINE"
);
},
{
closed = 1;
nodes = (
"315 252 LINE",
"316 50 LINE",
"386 50 LINE",
"385 252 LINE"
);
}
);
width = 710;
}
);
unicode = 12FA2;
},
{
glyphname = u12FA3;
lastChange = "2022-01-11 19:06:01 +0000";
layers = (
{
components = (
{
name = u12FA0;
}
);
layerId = UUID0;
paths = (
{
closed = 1;
nodes = (
"385 554 LINE",
"317 554 LINE",
"317 50 LINE",
"385 50 LINE"
);
},
{
closed = 1;
nodes = (
"539 351 LINE",
"163 351 LINE",
"163 291 LINE",
"539 291 LINE"
);
}
);
width = 710;
}
);
unicode = 12FA3;
},
{
glyphname = u12FA4;
lastChange = "2022-01-11 19:06:05 +0000";
layers = (
{
layerId = UUID0;
paths = (
{
closed = 1;
nodes = (
"614 161 LINE",
"577 457 OFFCURVE",
"481 810 OFFCURVE",
"339 810 CURVE SMOOTH",
"208 810 OFFCURVE",
"105 464 OFFCURVE",
"66 161 CURVE",
"136 161 LINE",
"171 436 OFFCURVE",
"256 740 OFFCURVE",
"339 740 CURVE SMOOTH",
"424 740 OFFCURVE",
"507 434 OFFCURVE",
"543 161 CURVE"
);
},
{
closed = 1;
nodes = (
"371 11 LINE",
"371 605 LINE SMOOTH",
"371 685 OFFCURVE",
"368 734 OFFCURVE",
"367 744 CURVE",
"305 744 LINE",
"304 734 OFFCURVE",
"301 685 OFFCURVE",
"301 605 CURVE SMOOTH",
"301 11 LINE"
);
},
{
closed = 1;
nodes = (
"524 60 LINE",
"148 60 LINE",
"148 0 LINE",
"524 0 LINE"
);
}
);
width = 680;
}
);
unicode = 12FA4;
},
{
glyphname = u12FA5;
lastChange = "2022-01-11 19:06:09 +0000";
layers = (
{
components = (
{
name = u12FA4;
transform = "{1, 0, 0, 1, -15, 0}";
}
);
layerId = UUID0;
paths = (
{
closed = 1;
nodes = (
"524 351 LINE",
"148 351 LINE",
"148 291 LINE",
"524 291 LINE"
);
}
);
width = 680;
}
);
unicode = 12FA5;
},
{
glyphname = u12FA6;
lastChange = "2022-01-11 19:06:12 +0000";
layers = (
{
associatedMasterId = UUID0;
layerId = "3E94E739-0926-4427-AC28-B58F0BBEF337";
name = "13 Dec 21, 17:00";
paths = (
{
closed = 1;
nodes = (
"552 419 LINE",
"365 800 LINE",
"309 800 LINE",
"132 419 LINE",
"208 419 LINE",
"337 707 LINE",
"476 419 LINE"
);
},
{
closed = 1;
nodes = (
"301 544 LINE",
"301 11 LINE",
"371 11 LINE",
"371 544 LINE"
);
}
);
width = 600;
},
{
layerId = UUID0;
paths = (
{
closed = 1;
nodes = (
"516 428 LINE",
"466 635 OFFCURVE",
"389 810 OFFCURVE",
"289 810 CURVE SMOOTH",
"196 810 OFFCURVE",
"118 637 OFFCURVE",
"66 428 CURVE",
"134 428 LINE",
"176 602 OFFCURVE",
"233 740 OFFCURVE",
"289 740 CURVE SMOOTH",
"346 740 OFFCURVE",
"402 602 OFFCURVE",
"444 428 CURVE"
);
},
{
closed = 1;
nodes = (
"251 544 LINE",
"251 11 LINE",
"321 11 LINE",
"321 544 LINE"
);
}
);
width = 582;
}
);
unicode = 12FA6;
},
{
glyphname = u12FA7;
lastChange = "2022-01-11 19:06:16 +0000";
layers = (
{
layerId = UUID0;
paths = (
{
closed = 1;
nodes = (
"534 0 LINE",
"528 352 OFFCURVE",
"430 619 OFFCURVE",
"299 619 CURVE SMOOTH",
"178 619 OFFCURVE",
"74 359 OFFCURVE",
"66 0 CURVE",
"136 0 LINE",
"140 331 OFFCURVE",
"225 549 OFFCURVE",
"299 549 CURVE SMOOTH",
"375 549 OFFCURVE",
"458 329 OFFCURVE",
"463 0 CURVE"
);
},
{
closed = 1;
nodes = (
"262 800 LINE",
"262 598 LINE",
"332 598 LINE",
"332 800 LINE"
);
}
);
width = 600;
}
);
unicode = 12FA7;
},
{
glyphname = u12FA8;
lastChange = "2022-01-11 19:06:22 +0000";
layers = (
{
layerId = UUID0;
paths = (
{
closed = 1;
nodes = (
"262 800 LINE",
"262 598 LINE",
"332 598 LINE",
"332 800 LINE"
);
},
{
closed = 1;
nodes = (
"262 467 LINE",
"262 265 LINE",
"332 265 LINE",
"332 467 LINE"
);
},
{
closed = 1;
nodes = (
"189 554 LINE",
"90 409 OFFCURVE",
"71 297 OFFCURVE",
"66 0 CURVE",
"136 0 LINE",
"139 300 OFFCURVE",
"156 396 OFFCURVE",
"240 517 CURVE"
);
},
{
closed = 1;
nodes = (
"444 396 OFFCURVE",
"461 299 OFFCURVE",
"464 0 CURVE",
"534 0 LINE",
"529 297 OFFCURVE",
"510 408 OFFCURVE",
"411 554 CURVE",
"360 517 LINE"
);
}
);
width = 600;
}
);
unicode = 12FA8;
},
{
glyphname = u12FA9;
lastChange = "2022-01-11 19:06:25 +0000";
layers = (
{
layerId = UUID0;
paths = (
{
closed = 1;
nodes = (
"110 51 LINE",
"381 695 LINE",
"654 49 LINE",
"718 78 LINE",
"406 800 LINE",
"358 800 LINE",
"48 78 LINE"
);
},
{
closed = 1;
nodes = (
"239 -3 LINE",
"381 351 LINE",
"521 -6 LINE",
"584 23 LINE",
"407 450 LINE",
"357 450 LINE",
"180 23 LINE"
);
}
);
width = 766;
}
);
unicode = 12FA9;
},
{
glyphname = u12FAA;
lastChange = "2022-01-11 19:06:30 +0000";
layers = (
{
layerId = UUID0;
paths = (
{
closed = 1;
nodes = (
"148 536 LINE",
"78 536 LINE",
"78 316 LINE",
"148 316 LINE"
);
},
{
closed = 1;
nodes = (
"413 536 LINE",
"413 316 LINE",
"483 316 LINE",
"483 536 LINE"
);
},
{
closed = 1;
nodes = (
"214 536 OFFCURVE",
"320 263 OFFCURVE",
"417 -7 CURVE",
"480 20 LINE",
"382 291 OFFCURVE",
"273 561 OFFCURVE",
"125 817 CURVE",
"66 784 LINE"
);
}
);
width = 549;
}
);
unicode = 12FAA;
},
{
glyphname = u12FAB;
lastChange = "2022-01-11 19:06:34 +0000";
layers = (
{
components = (
{
name = u12F99;
transform = "{1, 0, 0, 1, 196, 0}";
}
);
layerId = UUID0;
paths = (
{
closed = 1;
nodes = (
"170 800 LINE",
"100 800 LINE",
"100 530 LINE",
"170 530 LINE"
);
},
{
closed = 1;
nodes = (
"616 800 LINE",
"616 530 LINE",
"686 530 LINE",
"686 800 LINE"
);
},
{
closed = 1;
nodes = (
"170 270 LINE",
"100 270 LINE",
"100 0 LINE",
"170 0 LINE"
);
},
{
closed = 1;
nodes = (
"616 270 LINE",
"616 0 LINE",
"686 0 LINE",
"686 270 LINE"
);
}
);
width = 786;
}
);
unicode = 12FAB;
},
{
glyphname = u12FAC;
lastChange = "2022-01-11 19:06:38 +0000";
layers = (
{
layerId = UUID0;
paths = (
{
closed = 1;
nodes = (
"311 800 LINE",
"311 308 LINE",
"381 308 LINE",
"381 800 LINE"
);
},
{
closed = 1;
nodes = (
"249 255 LINE",
"135 10 LINE",
"197 -17 LINE",
"311 228 LINE"
);
},
{
closed = 1;
nodes = (
"444 255 LINE",
"382 228 LINE",
"496 -17 LINE",
"558 10 LINE"
);
},
{
closed = 1;
nodes = (
"170 800 LINE",
"100 800 LINE",
"100 560 LINE",
"170 560 LINE"
);
},
{
closed = 1;
nodes = (
"536 800 LINE",
"536 560 LINE",
"606 560 LINE",
"606 800 LINE"
);
},
{
closed = 1;
nodes = (
"170 470 LINE",
"100 470 LINE",
"100 230 LINE",
"170 230 LINE"
);
},
{
closed = 1;
nodes = (
"536 470 LINE",
"536 230 LINE",
"606 230 LINE",
"606 470 LINE"
);
}
);
width = 706;
}
);
unicode = 12FAC;
},
{
glyphname = u12FAD;
lastChange = "2022-01-11 19:06:42 +0000";
layers = (
{
layerId = UUID0;
paths = (
{
closed = 1;
nodes = (
"614 370 LINE",
"544 370 LINE",
"544 63 LINE",
"391 63 LINE",
"391 800 LINE",
"321 800 LINE",
"321 63 LINE",
"169 63 LINE",
"169 370 LINE",
"99 370 LINE",
"99 0 LINE",
"614 0 LINE"
);
},
{
closed = 1;
nodes = (
"169 490 LINE",
"169 800 LINE",
"99 800 LINE",
"99 490 LINE"
);
},
{
closed = 1;
nodes = (
"614 490 LINE",
"614 800 LINE",
"544 800 LINE",
"544 490 LINE"
);
}
);
width = 713;
}
);
unicode = 12FAD;
},
{
glyphname = u12FAE;
lastChange = "2022-01-11 19:06:47 +0000";
layers = (
{
layerId = UUID0;
paths = (
{
closed = 1;
nodes = (
"326 0 LINE",
"335 370 OFFCURVE",
"384 740 OFFCURVE",
"444 740 CURVE SMOOTH",
"505 740 OFFCURVE",
"554 365 OFFCURVE",
"563 0 CURVE",
"634 0 LINE",
"624 377 OFFCURVE",
"578 810 OFFCURVE",
"444 810 CURVE SMOOTH",
"320 810 OFFCURVE",
"268 396 OFFCURVE",
"256 0 CURVE"
);
},
{
closed = 1;
nodes = (
"170 800 LINE",
"100 800 LINE",
"100 490 LINE",
"170 490 LINE"
);
},
{
closed = 1;
nodes = (
"718 800 LINE",
"718 490 LINE",
"788 490 LINE",
"788 800 LINE"
);
},
{
closed = 1;
nodes = (
"170 370 LINE",
"100 370 LINE",
"100 0 LINE",
"170 0 LINE"
);
},
{
closed = 1;
nodes = (
"718 370 LINE",
"718 0 LINE",
"788 0 LINE",
"788 370 LINE"
);
}
);
width = 888;
}
);
unicode = 12FAE;
},
{
glyphname = u12FAF;
lastChange = "2022-01-11 19:06:53 +0000";
layers = (
{
layerId = UUID0;
paths = (
{
closed = 1;
nodes = (
"132 819 LINE",
"73 783 LINE",
"253 505 LINE SMOOTH",
"289 450 OFFCURVE",
"301 435 OFFCURVE",
"323 404 CURVE",
"304 379 OFFCURVE",
"286 354 OFFCURVE",
"246 293 CURVE SMOOTH",
"73 26 LINE",
"132 -10 LINE",
"401 404 LINE"
);
},
{
closed = 1;
nodes = (
"717 -10 LINE",
"776 26 LINE",
"603 293 LINE SMOOTH",
"563 354 OFFCURVE",
"545 379 OFFCURVE",
"526 404 CURVE",
"548 435 OFFCURVE",
"560 450 OFFCURVE",
"596 505 CURVE SMOOTH",
"776 783 LINE",
"717 819 LINE",
"448 404 LINE"
);
},
{
closed = 1;
nodes = (
"136 529 LINE",
"66 529 LINE",
"66 309 LINE",
"136 309 LINE"
);
},
{
closed = 1;
nodes = (
"713 529 LINE",
"713 309 LINE",
"783 309 LINE",
"783 529 LINE"
);
}
);
width = 849;
}
);
unicode = 12FAF;
},
{
glyphname = u12FB0;
lastChange = "2022-01-11 19:07:00 +0000";
layers = (
{
layerId = UUID0;
paths = (
{
closed = 1;
nodes = (
"193 421 LINE",
"33 421 LINE",
"33 358 LINE",
"193 358 LINE"
);
},
{
closed = 1;
nodes = (
"812 421 LINE",
"652 421 LINE",
"652 358 LINE",
"812 358 LINE"
);
},
{
closed = 1;
nodes = (
"389 536 LINE",
"459 536 LINE",
"459 800 LINE",
"389 800 LINE"
);
},
{
closed = 1;
nodes = (
"389 0 LINE",
"459 0 LINE",
"459 264 LINE",
"389 264 LINE"
);
},
{
closed = 1;
nodes = (
"340 236 LINE",
"316 266 OFFCURVE",
"293 322 OFFCURVE",
"293 381 CURVE SMOOTH",
"293 435 OFFCURVE",
"316 493 OFFCURVE",
"339 526 CURVE",
"290 553 LINE",
"249 500 OFFCURVE",
"229 440 OFFCURVE",
"229 381 CURVE SMOOTH",
"229 316 OFFCURVE",
"250 264 OFFCURVE",
"290 209 CURVE"
);
},
{
closed = 1;
nodes = (
"595 264 OFFCURVE",
"616 316 OFFCURVE",
"616 381 CURVE SMOOTH",
"616 440 OFFCURVE",
"596 500 OFFCURVE",
"555 553 CURVE",
"506 526 LINE",
"529 493 OFFCURVE",
"552 435 OFFCURVE",
"552 381 CURVE SMOOTH",
"552 322 OFFCURVE",
"529 266 OFFCURVE",
"505 236 CURVE",
"555 209 LINE"
);
}
);
width = 845;
}
);
unicode = 12FB0;
},
{
glyphname = u12FB1;
lastChange = "2022-01-11 19:07:04 +0000";
layers = (
{
layerId = UUID0;
paths = (
{
closed = 1;
nodes = (
"619 0 LINE",
"585 273 OFFCURVE",
"496 599 OFFCURVE",
"364 599 CURVE SMOOTH",
"243 599 OFFCURVE",
"147 280 OFFCURVE",
"111 0 CURVE",
"181 0 LINE",
"213 251 OFFCURVE",
"289 529 OFFCURVE",
"364 529 CURVE SMOOTH",
"441 529 OFFCURVE",
"516 249 OFFCURVE",
"548 0 CURVE"
);
},
{
closed = 1;
nodes = (
"398 240 LINE",
"398 394 LINE SMOOTH",
"398 474 OFFCURVE",
"395 523 OFFCURVE",
"394 533 CURVE",
"335 533 LINE",
"333 523 OFFCURVE",
"330 474 OFFCURVE",
"330 394 CURVE SMOOTH",
"330 240 LINE"
);
},
{
closed = 1;
nodes = (
"671 60 LINE",
"484 60 LINE",
"484 0 LINE",
"671 0 LINE"
);
},
{
closed = 1;
nodes = (
"242 60 LINE",
"55 60 LINE",
"55 0 LINE",
"242 0 LINE"
);
},
{
closed = 1;
nodes = (
"393 555 LINE",
"472 714 LINE",
"554 543 LINE",
"616 572 LINE",
"497 809 LINE",
"445 809 LINE",
"325 555 LINE"
);
}
);
width = 737;
}
);
unicode = 12FB1;
},
{
glyphname = u12FB2;
lastChange = "2022-01-11 19:07:12 +0000";
layers = (
{
layerId = UUID0;
paths = (
{
closed = 1;
nodes = (
"674 800 LINE",
"604 800 LINE",
"604 463 LINE",
"431 463 LINE",
"431 800 LINE",
"361 800 LINE",
"361 463 LINE",
"211 463 LINE",
"130 804 LINE",
"66 787 LINE",
"146 458 LINE",
"146 0 LINE",
"216 0 LINE",
"216 400 LINE",
"674 400 LINE"
);
}
);
width = 740;
}
);
unicode = 12FB2;
},
{
glyphname = u12FB3;
lastChange = "2022-01-11 19:07:16 +0000";
layers = (
{
layerId = UUID0;
paths = (
{
closed = 1;
nodes = (
"135 818 LINE",
"82 777 LINE",
"256 544 LINE",
"66 7 LINE",
"128 -16 LINE",
"329 555 LINE"
);
},
{
closed = 1;
nodes = (
"392 0 LINE",
"462 0 LINE",
"462 397 LINE",
"635 397 LINE",
"635 0 LINE",
"705 0 LINE",
"705 460 LINE",
"392 460 LINE"
);
},
{
closed = 1;
nodes = (
"392 536 LINE",
"462 536 LINE",
"462 800 LINE",
"392 800 LINE"
);
}
);
width = 771;
}
);
unicode = 12FB3;
},
{
glyphname = u12FB4;
lastChange = "2022-01-11 19:07:20 +0000";
layers = (
{
layerId = UUID0;
paths = (
{
closed = 1;
nodes = (
"247 440 LINE",
"117 816 LINE",
"55 795 LINE",
"192 399 LINE",
"192 0 LINE",
"262 0 LINE",
"262 377 LINE",
"409 377 LINE",
"409 0 LINE",
"479 0 LINE",
"479 377 LINE",
"660 377 LINE",
"660 0 LINE",
"730 0 LINE",
"730 440 LINE"
);
}
);
width = 796;
}
);
unicode = 12FB4;
},
{
glyphname = u12FB5;
lastChange = "2022-01-11 19:07:24 +0000";
layers = (
{
layerId = UUID0;
paths = (
{
closed = 1;
nodes = (
"356 434 LINE",
"420 422 LINE",
"492 808 LINE",
"428 819 LINE"
);
},
{
closed = 1;
nodes = (
"196 422 LINE",
"260 434 LINE",
"188 819 LINE",
"124 808 LINE"
);
},
{
closed = 1;
nodes = (
"376 2 LINE",
"439 -15 LINE",
"557 423 LINE",
"494 439 LINE"
);
},
{
closed = 1;
nodes = (
"64 423 LINE",
"182 -15 LINE",
"245 2 LINE",
"127 439 LINE"
);
}
);
width = 621;
}
);
unicode = 12FB5;
},
{
glyphname = u12FB6;
lastChange = "2022-01-11 19:07:28 +0000";
layers = (
{
layerId = UUID0;
paths = (
{
closed = 1;
nodes = (
"656 202 LINE",
"719 185 LINE",
"837 623 LINE",
"774 639 LINE"
);
},
{
closed = 1;
nodes = (
"64 623 LINE",
"182 185 LINE",
"245 202 LINE",
"127 639 LINE"
);
},
{
closed = 1;
nodes = (
"326 0 LINE",
"335 370 OFFCURVE",
"384 740 OFFCURVE",
"444 740 CURVE SMOOTH",
"505 740 OFFCURVE",
"554 365 OFFCURVE",
"563 0 CURVE",
"634 0 LINE",
"624 377 OFFCURVE",
"578 810 OFFCURVE",
"444 810 CURVE SMOOTH",
"320 810 OFFCURVE",
"268 396 OFFCURVE",
"256 0 CURVE"
);
}
);
width = 901;
}
);
unicode = 12FB6;
},
{
glyphname = u12FB7;
lastChange = "2022-01-11 19:07:33 +0000";
layers = (
{
layerId = UUID0;
paths = (
{
closed = 1;
nodes = (
"64 802 LINE",
"237 162 LINE",
"300 179 LINE",
"127 818 LINE"
);
},
{
closed = 1;
nodes = (
"598 0 LINE",
"568 180 OFFCURVE",
"521 310 OFFCURVE",
"448 310 CURVE SMOOTH",
"379 310 OFFCURVE",
"332 182 OFFCURVE",
"302 0 CURVE",
"369 0 LINE",
"390 144 OFFCURVE",
"417 240 OFFCURVE",
"448 240 CURVE SMOOTH",
"479 240 OFFCURVE",
"507 143 OFFCURVE",
"528 0 CURVE"
);
},
{
closed = 1;
nodes = (
"596 179 LINE",
"659 162 LINE",
"832 802 LINE",
"769 818 LINE"
);
}
);
width = 896;
}
);
unicode = 12FB7;
},
{
glyphname = u12FB8;
lastChange = "2022-01-11 19:07:38 +0000";
layers = (
{
layerId = UUID0;
paths = (
{
closed = 1;
nodes = (
"66 802 LINE",
"201 304 LINE",
"264 321 LINE",
"129 818 LINE"
);
},
{
closed = 1;
nodes = (
"205 0 LINE",
"275 0 LINE",
"275 264 LINE",
"205 264 LINE"
);
},
{
closed = 1;
nodes = (
"477 321 LINE",
"540 304 LINE",
"675 802 LINE",
"612 818 LINE"
);
},
{
closed = 1;
nodes = (
"466 264 LINE",
"466 0 LINE",
"536 0 LINE",
"536 264 LINE"
);
}
);
width = 741;
}
);
unicode = 12FB8;
},
{
glyphname = u12FB9;
lastChange = "2022-01-11 19:07:43 +0000";
layers = (
{
layerId = UUID0;
paths = (
{
closed = 1;
nodes = (
"541 336 LINE",
"662 802 LINE",
"598 818 LINE",
"491 406 LINE",
"507 426 LINE",
"392 800 LINE",
"342 800 LINE",
"238 418 LINE",
"248 414 LINE",
"129 818 LINE",
"66 802 LINE",
"203 336 LINE",
"271 336 LINE",
"378 730 LINE",
"354 730 LINE",
"475 336 LINE"
);
},
{
closed = 1;
nodes = (
"207 0 LINE",
"277 0 LINE",
"277 264 LINE",
"207 264 LINE"
);
},
{
closed = 1;
nodes = (
"468 264 LINE",
"468 0 LINE",
"538 0 LINE",
"538 264 LINE"
);
}
);
width = 728;
}
);
unicode = 12FB9;
},
{
glyphname = u12FBA;
lastChange = "2022-01-11 19:07:47 +0000";
layers = (
{
components = (
{
name = u12FB8;
}
);
layerId = UUID0;
paths = (
{
closed = 1;
nodes = (
"337 309 LINE",
"407 309 LINE",
"407 800 LINE",
"337 800 LINE"
);
},
{
closed = 1;
nodes = (
"644 721 LINE",
"724 552 LINE",
"786 581 LINE",
"667 818 LINE",
"612 818 LINE"
);
}
);
width = 841;
}
);
unicode = 12FBA;
},
{
glyphname = u12FBB;
lastChange = "2022-01-11 19:07:51 +0000";
layers = (
{
layerId = UUID0;
paths = (
{
closed = 1;
nodes = (
"501 0 LINE",
"471 180 OFFCURVE",
"424 310 OFFCURVE",
"351 310 CURVE SMOOTH",
"282 310 OFFCURVE",
"235 182 OFFCURVE",
"205 0 CURVE",
"272 0 LINE",
"293 144 OFFCURVE",
"320 240 OFFCURVE",
"351 240 CURVE SMOOTH",
"382 240 OFFCURVE",
"410 143 OFFCURVE",
"431 0 CURVE"
);
},
{
closed = 1;
nodes = (
"165 260 LINE",
"235 260 LINE",
"235 524 LINE",
"165 524 LINE"
);
},
{
closed = 1;
nodes = (
"466 524 LINE",
"466 260 LINE",
"536 260 LINE",
"536 524 LINE"
);
},
{
closed = 1;
nodes = (
"55 536 LINE",
"125 536 LINE",
"125 800 LINE",
"55 800 LINE"
);
},
{
closed = 1;
nodes = (
"576 800 LINE",
"576 536 LINE",
"646 536 LINE",
"646 800 LINE"
);
}
);
width = 701;
}
);
unicode = 12FBB;
},
{
glyphname = u12FBC;
lastChange = "2022-01-11 19:07:55 +0000";
layers = (
{
layerId = UUID0;
paths = (
{
closed = 1;
nodes = (
"369 0 LINE",
"439 0 LINE",
"439 800 LINE",
"369 800 LINE"
);
},
{
closed = 1;
nodes = (
"66 802 LINE",
"239 162 LINE",
"302 179 LINE",
"129 818 LINE"
);
},
{
closed = 1;
nodes = (
"518 179 LINE",
"581 162 LINE",
"754 802 LINE",
"691 818 LINE"
);
}
);
width = 820;
}
);
unicode = 12FBC;
},
{
glyphname = u12FBD;
lastChange = "2022-01-11 19:08:01 +0000";
layers = (
{
layerId = UUID0;
paths = (
{
closed = 1;
nodes = (
"359 0 LINE",
"359 619 LINE",
"289 619 LINE",
"289 0 LINE"
);
},
{
closed = 1;
nodes = (
"137 496 LINE",
"209 800 LINE",
"142 800 LINE",
"55 433 LINE",
"594 433 LINE",
"507 800 LINE",
"440 800 LINE",
"512 496 LINE"
);
}
);
width = 649;
}
);
unicode = 12FBD;
},
{
glyphname = u12FBE;
lastChange = "2022-01-11 19:08:05 +0000";
layers = (
{
layerId = UUID0;
paths = (
{
closed = 1;
nodes = (
"561 211 OFFCURVE",
"502 331 OFFCURVE",
"502 466 CURVE SMOOTH",
"502 550 OFFCURVE",
"538 688 OFFCURVE",
"598 800 CURVE",
"516 800 LINE",
"466 689 OFFCURVE",
"430 578 OFFCURVE",
"430 466 CURVE SMOOTH",
"430 293 OFFCURVE",
"495 190 OFFCURVE",
"513 70 CURVE",
"225 70 LINE",
"194 205 OFFCURVE",
"138 330 OFFCURVE",
"138 459 CURVE SMOOTH",
"138 546 OFFCURVE",
"172 681 OFFCURVE",
"234 800 CURVE",
"152 800 LINE",
"97 676 OFFCURVE",
"66 565 OFFCURVE",
"66 462 CURVE SMOOTH",
"66 289 OFFCURVE",
"135 187 OFFCURVE",
"167 0 CURVE",
"154 0 LINE",
"602 0 LINE"
);
}
);
width = 668;
}
);
unicode = 12FBE;
},
{
glyphname = u12FBF;
lastChange = "2022-01-11 19:08:11 +0000";
layers = (
{
layerId = UUID0;
paths = (
{
closed = 1;
nodes = (
"66 800 LINE",
"219 234 LINE",
"558 234 LINE",
"712 800 LINE",
"649 816 LINE",
"502 275 LINE",
"540 297 LINE",
"237 297 LINE",
"275 275 LINE",
"129 816 LINE"
);
},
{
closed = 1;
nodes = (
"579 0 LINE",
"579 63 LINE",
"198 63 LINE",
"198 0 LINE"
);
}
);
width = 778;
}
);
unicode = 12FBF;
},
{
glyphname = u12FC0;
lastChange = "2022-01-11 19:09:01 +0000";
layers = (
{
layerId = UUID0;
paths = (
{
closed = 1;
nodes = (
"66 666 LINE",
"219 0 LINE",
"558 0 LINE",
"712 666 LINE",
"649 682 LINE",
"500 41 LINE",
"537 63 LINE",
"240 63 LINE",
"277 41 LINE",
"129 682 LINE"
);
},
{
closed = 1;
nodes = (
"426 482 LINE",
"426 800 LINE",
"356 800 LINE",
"356 482 LINE"
);
}
);
width = 778;
}
);
unicode = 12FC0;
},
{
glyphname = u12FC1;
lastChange = "2022-01-11 19:09:03 +0000";
layers = (
{
layerId = UUID0;
paths = (
{
closed = 1;
nodes = (
"66 666 LINE",
"207 41 LINE",
"230 63 LINE",
"127 63 LINE",
"127 0 LINE",
"650 0 LINE",
"650 63 LINE",
"547 63 LINE",
"570 41 LINE",
"712 666 LINE",
"649 682 LINE",
"503 41 LINE",
"540 63 LINE",
"237 63 LINE",
"274 41 LINE",
"129 682 LINE"
);
},
{
closed = 1;
nodes = (
"426 272 LINE",
"426 800 LINE",
"356 800 LINE",
"356 272 LINE"
);
}
);
width = 778;
}
);
unicode = 12FC1;
},
{
glyphname = u12FC2;
lastChange = "2022-01-11 19:09:06 +0000";
layers = (
{
components = (
{
name = u12FC1;
}
);
layerId = UUID0;
paths = (
{
closed = 1;
nodes = (
"681 585 LINE",
"761 416 LINE",
"823 445 LINE",
"704 682 LINE",
"649 682 LINE"
);
}
);
width = 878;
}
);
unicode = 12FC2;
},
{
glyphname = u12FC3;
lastChange = "2022-01-11 19:09:10 +0000";
layers = (
{
layerId = UUID0;
paths = (
{
closed = 1;
nodes = (
"332 490 LINE",
"332 800 LINE",
"262 800 LINE",
"262 490 LINE"
);
},
{
closed = 1;
nodes = (
"517 490 LINE",
"517 800 LINE",
"447 800 LINE",
"447 490 LINE"
);
},
{
closed = 1;
nodes = (
"66 666 LINE",
"219 0 LINE",
"558 0 LINE",
"712 666 LINE",
"649 682 LINE",
"500 41 LINE",
"537 63 LINE",
"240 63 LINE",
"277 41 LINE",
"129 682 LINE"
);
}
);
width = 778;
}
);
unicode = 12FC3;
},
{
glyphname = u12FC4;
lastChange = "2022-01-11 19:09:13 +0000";
layers = (
{
layerId = UUID0;
paths = (
{
closed = 1;
nodes = (
"619 0 LINE",
"790 733 LINE",
"770 731 LINE",
"856 551 LINE",
"916 578 LINE",
"797 815 LINE",
"742 815 LINE",
"572 80 LINE",
"588 80 LINE",
"450 534 LINE",
"400 534 LINE",
"274 75 LINE",
"289 75 LINE",
"118 805 LINE",
"55 789 LINE",
"241 0 LINE"
);
},
{
closed = 1;
nodes = (
"434 441 LINE",
"417 441 LINE",
"539 41 LINE",
"560 63 LINE",
"302 63 LINE",
"324 41 LINE"
);
}
);
width = 971;
}
);
unicode = 12FC4;
},
{
glyphname = u12FC5;
lastChange = "2022-01-11 19:09:16 +0000";
layers = (
{
layerId = UUID0;
paths = (
{
closed = 1;
nodes = (
"372 490 LINE",
"372 800 LINE",
"302 800 LINE",
"302 490 LINE"
);
},
{
closed = 1;
nodes = (
"517 490 LINE",
"517 800 LINE",
"447 800 LINE",
"447 490 LINE"
);
},
{
closed = 1;
nodes = (
"66 700 LINE",
"219 234 LINE",
"598 234 LINE",
"752 700 LINE",
"689 716 LINE",
"544 275 LINE",
"583 297 LINE",
"234 297 LINE",
"273 275 LINE",
"129 716 LINE"
);
},
{
closed = 1;
nodes = (
"619 0 LINE",
"619 63 LINE",
"198 63 LINE",
"198 0 LINE"
);
}
);
width = 818;
}
);
unicode = 12FC5;
},
{
glyphname = u12FC6;
lastChange = "2022-01-11 19:09:21 +0000";
layers = (
{
layerId = UUID0;
paths = (
{
closed = 1;
nodes = (
"574 235 LINE",
"574 0 LINE",
"644 0 LINE",
"644 800 LINE",
"574 800 LINE",
"574 598 LINE",
"181 598 LINE",
"181 800 LINE",
"111 800 LINE",
"111 0 LINE",
"181 0 LINE",
"181 235 LINE"
);
},
{
closed = 1;
nodes = (
"181 535 LINE",
"574 535 LINE",
"574 298 LINE",
"181 298 LINE"
);
}
);
width = 755;
}
);
unicode = 12FC6;
},
{
glyphname = u12FC7;
lastChange = "2022-01-11 19:09:24 +0000";
layers = (
{
layerId = UUID0;
paths = (
{
closed = 1;
nodes = (
"644 0 LINE",
"644 800 LINE",
"111 800 LINE",
"111 0 LINE"
);
},
{
closed = 1;
nodes = (
"181 370 LINE",
"574 370 LINE",
"574 63 LINE",
"181 63 LINE"
);
},
{
closed = 1;
nodes = (
"181 737 LINE",
"574 737 LINE",
"574 433 LINE",
"181 433 LINE"
);
}
);
width = 755;
}
);
unicode = 12FC7;
},
{
glyphname = u12FC8;
lastChange = "2022-01-11 19:09:28 +0000";
layers = (
{
components = (
{
name = u12FC7;
}
);
layerId = UUID0;
paths = (
{
closed = 1;
nodes = (
"633 715 LINE",
"782 528 LINE",
"834 569 LINE",
"645 800 LINE",
"590 800 LINE"
);
}
);
width = 882;
}
);
unicode = 12FC8;
},
{
glyphname = u12FC9;
lastChange = "2022-01-11 19:09:31 +0000";
layers = (
{
components = (
{
name = u12FC7;
transform = "{1, 0, 0, 1, 128, 0}";
}
);
layerId = UUID0;
paths = (
{
closed = 1;
nodes = (
"150 260 LINE",
"150 570 LINE",
"80 570 LINE",
"80 260 LINE"
);
},
{
closed = 1;
nodes = (
"931 260 LINE",
"931 570 LINE",
"861 570 LINE",
"861 260 LINE"
);
}
);
width = 1011;
}
);
unicode = 12FC9;
},
{
glyphname = u12FCA;
lastChange = "2022-01-11 19:09:35 +0000";
layers = (
{
layerId = UUID0;
paths = (
{
closed = 1;
nodes = (
"644 0 LINE",
"644 800 LINE",
"111 800 LINE",
"111 0 LINE"
);
},
{
closed = 1;
nodes = (
"181 216 LINE",
"574 216 LINE",
"574 63 LINE",
"181 63 LINE"
);
},
{
closed = 1;
nodes = (
"181 471 LINE",
"574 471 LINE",
"574 279 LINE",
"181 279 LINE"
);
},
{
closed = 1;
nodes = (
"181 737 LINE",
"574 737 LINE",
"574 534 LINE",
"181 534 LINE"
);
}
);
width = 755;
}
);
unicode = 12FCA;
},
{
glyphname = u12FCB;
lastChange = "2022-01-11 19:09:39 +0000";
layers = (
{
layerId = UUID0;
paths = (
{
closed = 1;
nodes = (
"867 0 LINE",
"867 800 LINE",
"111 800 LINE",
"111 0 LINE"
);
},
{
closed = 1;
nodes = (
"181 216 LINE",
"454 216 LINE",
"454 63 LINE",
"181 63 LINE"
);
},
{
closed = 1;
nodes = (
"181 471 LINE",
"454 471 LINE",
"454 279 LINE",
"181 279 LINE"
);
},
{
closed = 1;
nodes = (
"181 737 LINE",
"454 737 LINE",
"454 534 LINE",
"181 534 LINE"
);
},
{
closed = 1;
nodes = (
"524 216 LINE",
"797 216 LINE",
"797 63 LINE",
"524 63 LINE"
);
},
{
closed = 1;
nodes = (
"524 471 LINE",
"797 471 LINE",
"797 279 LINE",
"524 279 LINE"
);
},
{
closed = 1;
nodes = (
"524 737 LINE",
"797 737 LINE",
"797 534 LINE",
"524 534 LINE"
);
}
);
width = 978;
}
);
unicode = 12FCB;
},
{
glyphname = u12FCC;
lastChange = "2022-01-11 19:09:45 +0000";
layers = (
{
components = (
{
name = u12FA0;
}
);
layerId = UUID0;
paths = (
{
closed = 1;
nodes = (
"619 0 LINE",
"619 63 LINE",
"98 63 LINE",
"98 0 LINE"
);
},
{
closed = 1;
nodes = (
"589 237 LINE",
"589 300 LINE",
"128 300 LINE",
"128 237 LINE"
);
},
{
closed = 1;
nodes = (
"529 460 LINE",
"529 522 LINE",
"188 522 LINE",
"188 460 LINE"
);
}
);
width = 710;
}
);
unicode = 12FCC;
},
{
glyphname = u12FCD;
lastChange = "2022-01-11 19:09:50 +0000";
layers = (
{
layerId = UUID0;
paths = (
{
closed = 1;
nodes = (
"66 800 LINE",
"236 0 LINE",
"575 0 LINE",
"748 800 LINE"
);
},
{
closed = 1;
nodes = (
"696 737 LINE",
"672 759 LINE",
"518 41 LINE",
"554 63 LINE",
"258 63 LINE",
"294 41 LINE",
"141 759 LINE",
"117 737 LINE"
);
}
);
width = 814;
}
);
unicode = 12FCD;
},
{
glyphname = u12FCE;
lastChange = "2022-01-11 19:09:53 +0000";
layers = (
{
components = (
{
name = u12FCD;
}
);
layerId = UUID0;
paths = (
{
closed = 1;
nodes = (
"373 0 LINE",
"443 0 LINE",
"443 800 LINE",
"373 800 LINE"
);
},
{
closed = 1;
nodes = (
"161 415 LINE",
"640 415 LINE",
"640 478 LINE",
"161 478 LINE"
);
}
);
width = 814;
}
);
unicode = 12FCE;
},
{
glyphname = u12FCF;
lastChange = "2022-01-11 19:09:58 +0000";
layers = (
{
layerId = UUID0;
paths = (
{
closed = 1;
nodes = (
"125 737 LINE",
"418 737 LINE",
"418 425 LINE",
"125 425 LINE"
);
},
{
closed = 1;
nodes = (
"488 362 LINE",
"781 362 LINE",
"781 63 LINE",
"488 63 LINE"
);
},
{
closed = 1;
nodes = (
"55 800 LINE",
"55 362 LINE",
"418 362 LINE",
"418 0 LINE",
"851 0 LINE",
"851 425 LINE",
"488 425 LINE",
"488 800 LINE"
);
}
);
width = 906;
}
);
unicode = 12FCF;
},
{
glyphname = u12FD0;
lastChange = "2022-01-11 19:10:44 +0000";
layers = (
{
layerId = UUID0;
paths = (
{
closed = 1;
nodes = (
"304 759 LINE",
"267 737 LINE",
"570 737 LINE",
"533 759 LINE",
"709 -16 LINE",
"772 0 LINE",
"600 759 LINE",
"577 737 LINE",
"680 737 LINE",
"680 800 LINE",
"157 800 LINE",
"157 737 LINE",
"260 737 LINE",
"237 759 LINE",
"66 0 LINE",
"129 -16 LINE"
);
}
);
width = 838;
}
);
unicode = 12FD0;
},
{
glyphname = u12FD1;
lastChange = "2022-01-11 19:10:50 +0000";
layers = (
{
components = (
{
name = u12FD2;
}
);
layerId = UUID0;
paths = (
{
closed = 1;
nodes = (
"719 737 LINE",
"719 800 LINE",
"70 800 LINE",
"70 737 LINE"
);
}
);
width = 809;
}
);
unicode = 12FD1;
},
{
glyphname = u12FD2;
lastChange = "2022-01-11 19:10:54 +0000";
layers = (
{
layerId = UUID0;
paths = (
{
closed = 1;
nodes = (
"136 0 LINE",
"145 369 OFFCURVE",
"194 737 OFFCURVE",
"254 737 CURVE SMOOTH",
"315 737 OFFCURVE",
"364 364 OFFCURVE",
"373 0 CURVE",
"444 0 LINE",
"434 372 OFFCURVE",
"388 800 OFFCURVE",
"254 800 CURVE SMOOTH",
"130 800 OFFCURVE",
"78 391 OFFCURVE",
"66 0 CURVE"
);
},
{
closed = 1;
nodes = (
"584 800 LINE",
"584 0 LINE",
"654 0 LINE",
"654 800 LINE"
);
}
);
width = 765;
}
);
unicode = 12FD2;
},
{
glyphname = u12FD3;
lastChange = "2022-01-11 19:10:58 +0000";
layers = (
{
layerId = UUID0;
paths = (
{
closed = 1;
nodes = (
"136 0 LINE",
"145 369 OFFCURVE",
"194 737 OFFCURVE",
"254 737 CURVE SMOOTH",
"315 737 OFFCURVE",
"364 364 OFFCURVE",
"373 0 CURVE",
"444 0 LINE",
"434 372 OFFCURVE",
"388 800 OFFCURVE",
"254 800 CURVE SMOOTH",
"130 800 OFFCURVE",
"78 391 OFFCURVE",
"66 0 CURVE"
);
},
{
closed = 1;
nodes = (
"536 0 LINE",
"545 369 OFFCURVE",
"594 737 OFFCURVE",
"654 737 CURVE SMOOTH",
"715 737 OFFCURVE",
"764 364 OFFCURVE",
"773 0 CURVE",
"844 0 LINE",
"834 372 OFFCURVE",
"788 800 OFFCURVE",
"654 800 CURVE SMOOTH",
"530 800 OFFCURVE",
"478 391 OFFCURVE",
"466 0 CURVE"
);
}
);
width = 910;
}
);
unicode = 12FD3;
},
{
glyphname = u12FD4;
lastChange = "2022-01-11 19:11:02 +0000";
layers = (
{
layerId = UUID0;
paths = (
{
closed = 1;
nodes = (
"624 791 LINE",
"562 816 LINE",
"430 504 LINE SMOOTH",
"397 426 OFFCURVE",
"382 386 OFFCURVE",
"377 373 CURVE",
"373 382 OFFCURVE",
"337 442 OFFCURVE",
"316 476 CURVE SMOOTH",
"109 816 LINE",
"55 777 LINE",
"347 305 LINE",
"221 7 LINE",
"282 -17 LINE"
);
}
);
width = 679;
}
);
unicode = 12FD4;
},
{
glyphname = u12FD5;
lastChange = "2022-01-11 19:11:07 +0000";
layers = (
{
components = (
{
name = u12FD4;
}
);
layerId = UUID0;
paths = (
{
closed = 1;
nodes = (
"323 598 LINE",
"391 598 LINE",
"391 814 LINE",
"323 814 LINE"
);
}
);
width = 679;
}
);
unicode = 12FD5;
},
{
glyphname = u12FD6;
lastChange = "2022-01-11 19:11:12 +0000";
layers = (
{
components = (
{
name = u12FD4;
}
);
layerId = UUID0;
paths = (
{
closed = 1;
nodes = (
"260 638 LINE",
"326 638 LINE",
"326 814 LINE",
"260 814 LINE"
);
},
{
closed = 1;
nodes = (
"378 638 LINE",
"444 638 LINE",
"444 814 LINE",
"378 814 LINE"
);
}
);
width = 679;
}
);
unicode = 12FD6;
},
{
glyphname = u12FD7;
lastChange = "2022-01-11 19:11:16 +0000";
layers = (
{
layerId = UUID0;
paths = (
{
closed = 1;
nodes = (
"169 500 LINE",
"169 263 LINE",
"239 263 LINE",
"239 500 LINE",
"429 500 LINE",
"429 263 LINE",
"499 263 LINE",
"499 500 LINE",
"611 500 LINE",
"611 800 LINE",
"66 800 LINE",
"66 500 LINE"
);
},
{
closed = 1;
nodes = (
"136 737 LINE",
"541 737 LINE",
"541 563 LINE",
"136 563 LINE"
);
},
{
closed = 1;
nodes = (
"369 0 LINE",
"369 244 LINE",
"299 244 LINE",
"299 0 LINE"
);
}
);
width = 677;
}
);
unicode = 12FD7;
},
{
glyphname = u12FD8;
lastChange = "2022-01-11 19:11:19 +0000";
layers = (
{
layerId = UUID0;
paths = (
{
closed = 1;
nodes = (
"313 191 LINE",
"116 811 LINE",
"55 790 LINE",
"252 171 LINE"
);
},
{
closed = 1;
nodes = (
"668 622 LINE",
"660 633 OFFCURVE",
"622 686 OFFCURVE",
"600 716 CURVE SMOOTH",
"526 816 LINE",
"474 778 LINE",
"656 535 LINE"
);
},
{
closed = 1;
nodes = (
"633 461 LINE",
"624 474 OFFCURVE",
"587 525 OFFCURVE",
"564 556 CURVE SMOOTH",
"487 659 LINE",
"434 621 LINE",
"619 375 LINE"
);
},
{
closed = 1;
nodes = (
"596 300 LINE",
"587 314 OFFCURVE",
"552 363 OFFCURVE",
"528 394 CURVE SMOOTH",
"458 486 LINE",
"405 447 LINE",
"583 214 LINE"
);
},
{
closed = 1;
nodes = (
"510 63 LINE",
"315 63 LINE",
"315 0 LINE",
"563 0 LINE",
"784 800 LINE",
"721 816 LINE"
);
}
);
width = 839;
}
);
unicode = 12FD8;
},
{
glyphname = u12FD9;
lastChange = "2022-01-11 19:11:22 +0000";
layers = (
{
layerId = UUID0;
paths = (
{
closed = 1;
nodes = (
"310 0 LINE",
"644 791 LINE",
"582 816 LINE",
"450 504 LINE SMOOTH",
"417 426 OFFCURVE",
"402 386 OFFCURVE",
"397 373 CURVE",
"393 382 OFFCURVE",
"357 442 OFFCURVE",
"336 476 CURVE SMOOTH",
"129 816 LINE",
"75 777 LINE",
"367 305 LINE",
"265 63 LINE",
"66 63 LINE",
"66 0 LINE"
);
},
{
closed = 1;
nodes = (
"614 719 LINE",
"694 550 LINE",
"756 579 LINE",
"637 816 LINE",
"582 816 LINE"
);
}
);
width = 811;
}
);
unicode = 12FD9;
},
{
glyphname = u12FDA;
lastChange = "2022-01-11 19:11:26 +0000";
layers = (
{
components = (
{
name = u12FD9;
}
);
layerId = UUID0;
paths = (
{
closed = 1;
nodes = (
"626 516 LINE",
"827 516 LINE",
"827 579 LINE",
"626 579 LINE"
);
}
);
width = 871;
}
);
unicode = 12FDA;
},
{
glyphname = u12FDB;
lastChange = "2022-01-11 19:11:31 +0000";
layers = (
{
layerId = UUID0;
paths = (
{
closed = 1;
nodes = (
"111 0 LINE",
"630 0 LINE",
"630 63 LINE",
"181 63 LINE",
"181 800 LINE",
"111 800 LINE"
);
},
{
closed = 1;
nodes = (
"664 519 LINE",
"664 582 LINE SMOOTH",
"664 760 OFFCURVE",
"571 798 OFFCURVE",
"502 798 CURVE SMOOTH",
"438 798 OFFCURVE",
"345 761 OFFCURVE",
"345 582 CURVE SMOOTH",
"345 519 LINE"
);
},
{
closed = 1;
nodes = (
"412 719 OFFCURVE",
"470 733 OFFCURVE",
"503 733 CURVE SMOOTH",
"535 733 OFFCURVE",
"593 719 OFFCURVE",
"593 581 CURVE",
"412 581 LINE"
);
}
);
width = 750;
}
);
unicode = 12FDB;
},
{
glyphname = u12FDC;
lastChange = "2022-01-11 19:11:36 +0000";
layers = (
{
layerId = UUID0;
paths = (
{
closed = 1;
nodes = (
"111 0 LINE",
"630 0 LINE",
"630 63 LINE",
"181 63 LINE",
"181 800 LINE",
"111 800 LINE"
);
},
{
closed = 1;
nodes = (
"593 519 LINE",
"664 519 LINE",
"664 582 LINE SMOOTH",
"664 760 OFFCURVE",
"571 798 OFFCURVE",
"502 798 CURVE SMOOTH",
"438 798 OFFCURVE",
"345 761 OFFCURVE",
"345 582 CURVE SMOOTH",
"345 519 LINE",
"412 519 LINE",
"412 581 LINE SMOOTH",
"412 719 OFFCURVE",
"470 733 OFFCURVE",
"503 733 CURVE SMOOTH",
"535 733 OFFCURVE",
"593 719 OFFCURVE",
"593 581 CURVE SMOOTH"
);
},
{
closed = 1;
nodes = (
"533 580 OFFCURVE",
"551 599 OFFCURVE",
"551 629 CURVE SMOOTH",
"551 659 OFFCURVE",
"533 678 OFFCURVE",
"503 678 CURVE SMOOTH",
"472 678 OFFCURVE",
"453 659 OFFCURVE",
"453 629 CURVE SMOOTH",
"453 599 OFFCURVE",
"472 580 OFFCURVE",
"503 580 CURVE SMOOTH"
);
}
);
width = 750;
}
);
unicode = 12FDC;
},
{
glyphname = u12FDD;
lastChange = "2022-01-11 19:11:40 +0000";
layers = (
{
layerId = UUID0;
paths = (
{
closed = 1;
nodes = (
"166 800 LINE",
"337 41 LINE",
"360 63 LINE",
"157 63 LINE",
"157 0 LINE",
"680 0 LINE",
"680 63 LINE",
"477 63 LINE",
"500 41 LINE",
"672 800 LINE",
"609 816 LINE",
"433 41 LINE",
"470 63 LINE",
"367 63 LINE",
"404 41 LINE",
"229 816 LINE"
);
},
{
closed = 1;
nodes = (
"641 719 LINE",
"721 550 LINE",
"783 579 LINE",
"664 816 LINE",
"609 816 LINE"
);
},
{
closed = 1;
nodes = (
"174 816 LINE",
"55 579 LINE",
"117 550 LINE",
"197 719 LINE",
"229 816 LINE"
);
}
);
width = 838;
}
);
unicode = 12FDD;
},
{
glyphname = u12FDE;
lastChange = "2022-01-11 19:11:44 +0000";
layers = (
{
layerId = UUID0;
paths = (
{
closed = 1;
nodes = (
"174 800 LINE",
"345 41 LINE",
"368 63 LINE",
"165 63 LINE",
"165 0 LINE",
"688 0 LINE",
"688 63 LINE",
"485 63 LINE",
"508 41 LINE",
"680 800 LINE",
"617 816 LINE",
"441 41 LINE",
"478 63 LINE",
"375 63 LINE",
"412 41 LINE",
"237 816 LINE"
);
},
{
closed = 1;
nodes = (
"66 515 LINE",
"265 515 LINE",
"265 578 LINE",
"66 578 LINE"
);
},
{
closed = 1;
nodes = (
"606 575 LINE",
"805 575 LINE",
"805 638 LINE",
"606 638 LINE"
);
},
{
closed = 1;
nodes = (
"576 435 LINE",
"775 435 LINE",
"775 498 LINE",
"576 498 LINE"
);
}
);
width = 871;
}
);
unicode = 12FDE;
},
{
glyphname = u12FDF;
lastChange = "2022-01-11 19:11:48 +0000";
layers = (
{
layerId = UUID0;
paths = (
{
closed = 1;
nodes = (
"186 492 OFFCURVE",
"223 424 OFFCURVE",
"265 354 CURVE SMOOTH",
"301 295 OFFCURVE",
"310 257 OFFCURVE",
"310 194 CURVE SMOOTH",
"310 0 LINE",
"380 0 LINE",
"380 194 LINE SMOOTH",
"380 266 OFFCURVE",
"364 318 OFFCURVE",
"326 382 CURVE SMOOTH",
"290 443 OFFCURVE",
"255 504 OFFCURVE",
"265 570 CURVE SMOOTH",
"278 655 OFFCURVE",
"317 740 OFFCURVE",
"348 740 CURVE SMOOTH",
"379 740 OFFCURVE",
"407 651 OFFCURVE",
"428 520 CURVE",
"498 520 LINE",
"468 688 OFFCURVE",
"421 810 OFFCURVE",
"348 810 CURVE SMOOTH",
"279 810 OFFCURVE",
"219 693 OFFCURVE",
"199 570 CURVE SMOOTH"
);
},
{
closed = 1;
nodes = (
"476 16 LINE",
"605 369 LINE",
"543 391 LINE",
"414 39 LINE"
);
},
{
closed = 1;
nodes = (
"125 382 LINE",
"66 355 LINE",
"226 15 LINE",
"285 43 LINE"
);
}
);
width = 671;
}
);
unicode = 12FDF;
},
{
glyphname = u12FE0;
lastChange = "2022-01-11 19:12:11 +0000";
layers = (
{
layerId = UUID0;
paths = (
{
closed = 1;
nodes = (
"303 337 LINE",
"303 0 LINE",
"373 0 LINE",
"373 337 LINE",
"611 337 LINE",
"611 800 LINE",
"66 800 LINE",
"66 337 LINE"
);
},
{
closed = 1;
nodes = (
"136 737 LINE",
"541 737 LINE",
"541 400 LINE",
"136 400 LINE"
);
}
);
width = 677;
}
);
unicode = 12FE0;
},
{
glyphname = u12FE1;
lastChange = "2022-01-11 19:12:14 +0000";
layers = (
{
layerId = UUID0;
paths = (
{
closed = 1;
nodes = (
"627 327 LINE",
"627 489 LINE",
"557 489 LINE",
"557 327 LINE"
);
},
{
closed = 1;
nodes = (
"66 704 LINE",
"627 704 LINE",
"627 767 LINE",
"66 767 LINE"
);
},
{
closed = 1;
nodes = (
"627 441 LINE",
"66 441 LINE",
"66 378 LINE",
"319 378 LINE",
"319 0 LINE",
"389 0 LINE",
"389 378 LINE",
"627 378 LINE"
);
},
{
closed = 1;
nodes = (
"136 327 LINE",
"136 489 LINE",
"66 489 LINE",
"66 327 LINE"
);
},
{
closed = 1;
nodes = (
"627 653 LINE",
"627 815 LINE",
"557 815 LINE",
"557 653 LINE"
);
},
{
closed = 1;
nodes = (
"136 653 LINE",
"136 815 LINE",
"66 815 LINE",
"66 653 LINE"
);
}
);
width = 693;
}
);
unicode = 12FE1;
},
{
glyphname = u12FE2;
lastChange = "2022-01-11 19:12:18 +0000";
layers = (
{
layerId = UUID0;
paths = (
{
closed = 1;
nodes = (
"574 357 LINE",
"574 0 LINE",
"644 0 LINE",
"644 800 LINE",
"111 800 LINE",
"111 0 LINE",
"181 0 LINE",
"181 357 LINE"
);
},
{
closed = 1;
nodes = (
"181 737 LINE",
"574 737 LINE",
"574 420 LINE",
"181 420 LINE"
);
}
);
width = 755;
}
);
unicode = 12FE2;
},
{
glyphname = u12FE3;
lastChange = "2022-01-11 19:12:23 +0000";
layers = (
{
layerId = UUID0;
paths = (
{
closed = 1;
nodes = (
"414 537 LINE",
"344 537 LINE",
"344 0 LINE",
"414 0 LINE"
);
},
{
closed = 1;
nodes = (
"121 817 LINE",
"55 801 LINE",
"117 550 LINE",
"183 566 LINE"
);
},
{
closed = 1;
nodes = (
"266 817 LINE",
"204 566 LINE",
"270 550 LINE",
"332 801 LINE"
);
},
{
closed = 1;
nodes = (
"501 817 LINE",
"435 801 LINE",
"497 550 LINE",
"563 566 LINE"
);
},
{
closed = 1;
nodes = (
"646 817 LINE",
"584 566 LINE",
"650 550 LINE",
"712 801 LINE"
);
},
{
closed = 1;
nodes = (
"527 63 LINE",
"231 63 LINE",
"231 0 LINE",
"527 0 LINE"
);
}
);
width = 767;
}
);
unicode = 12FE3;
},
{
glyphname = u12FE4;
lastChange = "2022-01-11 19:12:26 +0000";
layers = (
{
layerId = UUID0;
paths = (
{
closed = 1;
nodes = (
"498 497 LINE",
"468 679 OFFCURVE",
"421 810 OFFCURVE",
"348 810 CURVE SMOOTH",
"279 810 OFFCURVE",
"232 681 OFFCURVE",
"202 497 CURVE",
"269 497 LINE",
"290 643 OFFCURVE",
"317 740 OFFCURVE",
"348 740 CURVE SMOOTH",
"379 740 OFFCURVE",
"407 642 OFFCURVE",
"428 497 CURVE"
);
},
{
closed = 1;
nodes = (
"561 800 LINE",
"561 500 LINE",
"136 500 LINE",
"136 800 LINE",
"66 800 LINE",
"66 437 LINE",
"313 437 LINE",
"313 0 LINE",
"383 0 LINE",
"383 437 LINE",
"631 437 LINE",
"631 800 LINE"
);
}
);
width = 697;
}
);
unicode = 12FE4;
},
{
glyphname = u12FE5;
lastChange = "2022-01-11 19:12:28 +0000";
layers = (
{
components = (
{
name = u12FE4;
transform = "{1, 0, 0, 1, 94, 0}";
}
);
layerId = UUID0;
paths = (
{
closed = 1;
nodes = (
"55 737 LINE",
"230 737 LINE",
"230 800 LINE",
"55 800 LINE"
);
},
{
closed = 1;
nodes = (
"655 737 LINE",
"830 737 LINE",
"830 800 LINE",
"655 800 LINE"
);
}
);
width = 885;
}
);
unicode = 12FE5;
},
{
glyphname = u12FE6;
lastChange = "2022-01-11 19:12:30 +0000";
layers = (
{
layerId = UUID0;
paths = (
{
closed = 1;
nodes = (
"561 800 LINE",
"561 500 LINE",
"136 500 LINE",
"136 800 LINE",
"66 800 LINE",
"66 437 LINE",
"313 437 LINE",
"313 0 LINE",
"383 0 LINE",
"383 437 LINE",
"631 437 LINE",
"631 800 LINE"
);
},
{
closed = 1;
nodes = (
"313 584 LINE",
"383 584 LINE",
"383 800 LINE",
"313 800 LINE"
);
}
);
width = 697;
}
);
unicode = 12FE6;
},
{
glyphname = u12FE7;
lastChange = "2022-01-11 19:12:33 +0000";
layers = (
{
components = (
{
name = u12FE9;
}
);
layerId = UUID0;
paths = (
{
closed = 1;
nodes = (
"435 0 LINE",
"505 0 LINE",
"505 387 LINE",
"435 387 LINE"
);
}
);
width = 935;
}
);
unicode = 12FE7;
},
{
glyphname = u12FE8;
lastChange = "2022-01-11 19:12:37 +0000";
layers = (
{
layerId = UUID0;
paths = (
{
closed = 1;
nodes = (
"125 819 LINE",
"66 783 LINE",
"246 505 LINE SMOOTH",
"282 450 OFFCURVE",
"294 435 OFFCURVE",
"316 404 CURVE",
"297 379 OFFCURVE",
"279 354 OFFCURVE",
"239 293 CURVE SMOOTH",
"66 26 LINE",
"125 -10 LINE",
"394 404 LINE"
);
},
{
closed = 1;
nodes = (
"810 -10 LINE",
"869 26 LINE",
"696 293 LINE SMOOTH",
"656 354 OFFCURVE",
"638 379 OFFCURVE",
"619 404 CURVE",
"641 435 OFFCURVE",
"653 450 OFFCURVE",
"689 505 CURVE SMOOTH",
"869 783 LINE",
"810 819 LINE",
"541 404 LINE"
);
},
{
closed = 1;
nodes = (
"435 0 LINE",
"505 0 LINE",
"505 296 LINE",
"435 296 LINE"
);
},
{
closed = 1;
nodes = (
"435 535 LINE",
"505 535 LINE",
"505 800 LINE",
"435 800 LINE"
);
}
);
width = 935;
}
);
unicode = 12FE8;
},
{
glyphname = u12FE9;
lastChange = "2022-01-11 19:12:41 +0000";
layers = (
{
layerId = UUID0;
paths = (
{
closed = 1;
nodes = (
"435 601 LINE",
"505 601 LINE",
"505 800 LINE",
"435 800 LINE"
);
},
{
closed = 1;
nodes = (
"125 -10 LINE",
"375 374 LINE",
"560 374 LINE",
"810 -10 LINE",
"869 26 LINE",
"696 293 LINE SMOOTH",
"656 354 OFFCURVE",
"638 379 OFFCURVE",
"619 404 CURVE",
"641 435 OFFCURVE",
"653 450 OFFCURVE",
"689 505 CURVE SMOOTH",
"869 783 LINE",
"810 819 LINE",
"562 437 LINE",
"373 437 LINE",
"125 819 LINE",
"66 783 LINE",
"246 505 LINE SMOOTH",
"282 450 OFFCURVE",
"294 435 OFFCURVE",
"316 404 CURVE",
"297 379 OFFCURVE",
"279 354 OFFCURVE",
"239 293 CURVE SMOOTH",
"66 26 LINE"
);
}
);
width = 935;
}
);
unicode = 12FE9;
},
{
glyphname = u12FEA;
lastChange = "2022-01-11 19:12:46 +0000";
layers = (
{
layerId = UUID0;
paths = (
{
closed = 1;
nodes = (
"236 0 LINE",
"240 220 OFFCURVE",
"275 520 OFFCURVE",
"294 520 CURVE SMOOTH",
"319 520 OFFCURVE",
"358 216 OFFCURVE",
"363 0 CURVE",
"434 0 LINE",
"427 235 OFFCURVE",
"383 590 OFFCURVE",
"294 590 CURVE SMOOTH",
"220 590 OFFCURVE",
"174 248 OFFCURVE",
"166 0 CURVE"
);
},
{
closed = 1;
nodes = (
"116 304 LINE",
"476 304 LINE",
"476 367 LINE",
"116 367 LINE"
);
},
{
closed = 1;
nodes = (
"201 501 LINE",
"177 531 OFFCURVE",
"154 587 OFFCURVE",
"154 646 CURVE SMOOTH",
"154 700 OFFCURVE",
"177 758 OFFCURVE",
"200 791 CURVE",
"151 818 LINE",
"110 765 OFFCURVE",
"90 705 OFFCURVE",
"90 646 CURVE SMOOTH",
"90 581 OFFCURVE",
"111 529 OFFCURVE",
"151 474 CURVE"
);
},
{
closed = 1;
nodes = (
"482 529 OFFCURVE",
"503 581 OFFCURVE",
"503 646 CURVE SMOOTH",
"503 705 OFFCURVE",
"483 765 OFFCURVE",
"442 818 CURVE",
"393 791 LINE",
"416 758 OFFCURVE",
"439 700 OFFCURVE",
"439 646 CURVE SMOOTH",
"439 587 OFFCURVE",
"416 531 OFFCURVE",
"392 501 CURVE",
"442 474 LINE"
);
}
);
width = 593;
}
);
unicode = 12FEA;
},
{
glyphname = u12FEB;
lastChange = "2022-01-11 19:12:50 +0000";
layers = (
{
layerId = UUID0;
paths = (
{
closed = 1;
nodes = (
"125 -10 LINE",
"375 374 LINE",
"560 374 LINE",
"810 -10 LINE",
"869 26 LINE",
"696 293 LINE SMOOTH",
"656 354 OFFCURVE",
"638 379 OFFCURVE",
"619 404 CURVE",
"641 435 OFFCURVE",
"653 450 OFFCURVE",
"689 505 CURVE SMOOTH",
"869 783 LINE",
"810 819 LINE",
"562 437 LINE",
"373 437 LINE",
"125 819 LINE",
"66 783 LINE",
"246 505 LINE SMOOTH",
"282 450 OFFCURVE",
"294 435 OFFCURVE",
"316 404 CURVE",
"297 379 OFFCURVE",
"279 354 OFFCURVE",
"239 293 CURVE SMOOTH",
"66 26 LINE"
);
},
{
closed = 1;
nodes = (
"416 583 LINE",
"473 727 LINE",
"531 583 LINE",
"589 607 LINE",
"501 809 LINE",
"448 809 LINE",
"361 605 LINE"
);
}
);
width = 935;
}
);
unicode = 12FEB;
},
{
glyphname = u12FEC;
lastChange = "2022-01-11 19:12:55 +0000";
layers = (
{
layerId = UUID0;
paths = (
{
closed = 1;
nodes = (
"125 -10 LINE",
"375 374 LINE",
"560 374 LINE",
"810 -10 LINE",
"869 26 LINE",
"696 293 LINE SMOOTH",
"656 354 OFFCURVE",
"638 379 OFFCURVE",
"619 404 CURVE",
"641 435 OFFCURVE",
"653 450 OFFCURVE",
"689 505 CURVE SMOOTH",
"869 783 LINE",
"810 819 LINE",
"562 437 LINE",
"373 437 LINE",
"125 819 LINE",
"66 783 LINE",
"246 505 LINE SMOOTH",
"282 450 OFFCURVE",
"294 435 OFFCURVE",
"316 404 CURVE",
"297 379 OFFCURVE",
"279 354 OFFCURVE",
"239 293 CURVE SMOOTH",
"66 26 LINE"
);
},
{
closed = 1;
nodes = (
"405 488 LINE",
"472 593 LINE",
"540 488 LINE",
"591 518 LINE",
"498 651 LINE",
"449 651 LINE",
"357 516 LINE"
);
},
{
closed = 1;
nodes = (
"407 653 LINE",
"474 758 LINE",
"542 653 LINE",
"593 683 LINE",
"500 816 LINE",
"451 816 LINE",
"359 681 LINE"
);
}
);
width = 935;
}
);
unicode = 12FEC;
},
{
glyphname = u12FED;
lastChange = "2022-01-11 19:12:58 +0000";
layers = (
{
layerId = UUID0;
paths = (
{
closed = 1;
nodes = (
"125 819 LINE",
"66 783 LINE",
"246 505 LINE SMOOTH",
"282 450 OFFCURVE",
"294 435 OFFCURVE",
"316 404 CURVE",
"297 379 OFFCURVE",
"279 354 OFFCURVE",
"239 293 CURVE SMOOTH",
"66 26 LINE",
"125 -10 LINE",
"394 404 LINE"
);
},
{
closed = 1;
nodes = (
"880 -10 LINE",
"939 26 LINE",
"766 293 LINE SMOOTH",
"726 354 OFFCURVE",
"708 379 OFFCURVE",
"689 404 CURVE",
"711 435 OFFCURVE",
"723 450 OFFCURVE",
"759 505 CURVE SMOOTH",
"939 783 LINE",
"880 819 LINE",
"611 404 LINE"
);
},
{
closed = 1;
nodes = (
"552 0 LINE",
"622 0 LINE",
"622 270 LINE",
"552 270 LINE"
);
},
{
closed = 1;
nodes = (
"382 0 LINE",
"452 0 LINE",
"452 270 LINE",
"382 270 LINE"
);
}
);
width = 1005;
}
);
unicode = 12FED;
},
{
glyphname = u12FEE;
lastChange = "2022-01-11 19:13:02 +0000";
layers = (
{
components = (
{
name = u12FEB;
}
);
layerId = UUID0;
paths = (
{
closed = 1;
nodes = (
"435 0 LINE",
"505 0 LINE",
"505 296 LINE",
"435 296 LINE"
);
}
);
width = 935;
}
);
unicode = 12FEE;
},
{
glyphname = u12FEF;
lastChange = "2022-01-11 19:13:06 +0000";
layers = (
{
layerId = UUID0;
paths = (
{
closed = 1;
nodes = (
"125 -10 LINE",
"375 374 LINE",
"560 374 LINE",
"810 -10 LINE",
"869 26 LINE",
"696 293 LINE SMOOTH",
"657 353 OFFCURVE",
"640 378 OFFCURVE",
"622 403 CURVE",
"643 434 OFFCURVE",
"653 450 OFFCURVE",
"689 505 CURVE SMOOTH",
"869 783 LINE",
"810 819 LINE",
"737.462 707.268 LINE",
"707 750 LINE",
"657 818 LINE",
"605 780 LINE",
"701 651 LINE",
"668.163 600.526 LINE",
"632 650 LINE",
"589 708 LINE",
"536 670 LINE",
"631 544 LINE",
"600 495 LINE",
"588 512 OFFCURVE",
"571 536 OFFCURVE",
"562 547 CURVE SMOOTH",
"520 602 LINE",
"467 563 LINE",
"563 438 LINE",
"373 437 LINE",
"125 819 LINE",
"66 783 LINE",
"246 505 LINE SMOOTH",
"282 450 OFFCURVE",
"294 435 OFFCURVE",
"316 404 CURVE",
"297 379 OFFCURVE",
"279 354 OFFCURVE",
"239 293 CURVE SMOOTH",
"66 26 LINE"
);
}
);
width = 935;
}
);
unicode = 12FEF;
},
{
glyphname = u12FF0;
lastChange = "2022-01-11 19:13:11 +0000";
layers = (
{
components = (
{
name = u12FA0;
transform = "{1, 0, 0, -1, 0, 800}";
}
);
layerId = UUID0;
paths = (
{
closed = 1;
nodes = (
"318 750 LINE",
"318 213 LINE SMOOTH",
"318 160 OFFCURVE",
"320 106 OFFCURVE",
"323 53 CURVE",
"383 53 LINE",
"386 106 OFFCURVE",
"388 160 OFFCURVE",
"388 213 CURVE SMOOTH",
"388 750 LINE"
);
},
{
closed = 1;
nodes = (
"109 800 LINE",
"109 740 LINE",
"593 740 LINE",
"593 800 LINE"
);
},
{
closed = 1;
nodes = (
"109 590 LINE",
"109 530 LINE",
"593 530 LINE",
"593 590 LINE"
);
},
{
closed = 1;
nodes = (
"152 380 LINE",
"152 320 LINE",
"550 320 LINE",
"550 380 LINE"
);
}
);
width = 710;
}
);
unicode = 12FF0;
},
{
glyphname = u12FF1;
lastChange = "2022-01-11 19:13:15 +0000";
layers = (
{
components = (
{
name = u12FF2;
}
);
layerId = UUID0;
paths = (
{
closed = 1;
nodes = (
"340 430 LINE",
"410 430 LINE",
"410 660 LINE",
"340 660 LINE"
);
}
);
width = 486;
}
);
unicode = 12FF1;
},
{
glyphname = u12FF2;
lastChange = "2022-01-11 19:05:50 +0000";
layers = (
{
layerId = UUID0;
paths = (
{
closed = 1;
nodes = (
"286 271 LINE",
"153 555 LINE",
"152 499 LINE",
"302 789 LINE",
"242 819 LINE",
"90 526 LINE",
"228 233 LINE",
"219 289 LINE",
"157 0 LINE",
"224 -16 LINE"
);
}
